:SAMPLES-PER-SECOND 30
:FULLY-SPECIFIED
:DEGREES
245
root  2.42479 34.5876 -61.0651 -172.172 1.09993 -179.92
RightUpLeg  -15.3965 -12.5733 -3.75916
RightLeg  13.0601 0.5466 0.0907548
RightFoot  9.69352 0.0248925 0.237152
RightToes  -31.4004 -0.153682 -0.26158
Spine  -0.752447 -0.124997 -0.0107135
Spine1  -1.57099 -0.121533 0.547411
HEad  -64.0653 0.81159 5.54369
LeftShoulder1  -1.94126e-019 -3.10601e-018 -2.51263e-017
LeftArm  -13.1215 18.6051 -80.5758
LeftForeArm  31.9631 -19.7799 -3.31897
LeftHand  -0.461511 -1.32705 8.13352
RightShoulder  -4.96962e-017 0 -2.36833e-017
RightArm  -26.5084 -17.1503 74.0898
RightForeArm  54.8351 14.7635 1.1776
RightHand  -0.358364 -1.50179 -10.557
LeftUpLeg  -14.5965 -3.70802 4.31869
LeftLeg  17.8069 7.31493 1.83262
LeftFoot  3.61323 -0.00384699 0.612345
LeftToes  -24.4139 1.31378e-006 1.14341e-007
246
root  2.06913 34.5745 -60.6393 -171.845 2.91412 -179.889
RightUpLeg  -17.1304 -12.1219 -4.01353
RightLeg  13.5152 1.91215 0.331731
RightFoot  11.113 0.00124963 0.510968
RightToes  -32.4804 -0.161369 -0.26883
Spine  -0.526565 0.00427047 -0.174986
Spine1  -1.11778 0.138468 0.232115
HEad  -64.3608 1.51936 5.97368
LeftShoulder1  -1.94126e-019 -3.10601e-018 -2.51263e-017
LeftArm  -12.3705 18.0341 -80.7078
LeftForeArm  31.4791 -20.5748 -3.40762
LeftHand  -0.453714 -1.2841 8.04667
RightShoulder  -4.96962e-017 0 -2.36833e-017
RightArm  -25.7016 -15.5819 74.1985
RightForeArm  53.9458 15.398 1.12927
RightHand  -0.357716 -1.51327 -10.5664
LeftUpLeg  -15.8449 -2.11996 3.70512
LeftLeg  18.8445 7.5606 2.03937
LeftFoot  3.60688 -0.00687273 0.637068
LeftToes  -23.4805 1.31378e-006 1.14341e-007
247
root  1.68132 34.5689 -60.1125 -171.219 5.55438 -179.846
RightUpLeg  -19.3244 -11.2025 -4.1669
RightLeg  13.5215 3.63994 0.631332
RightFoot  13.1861 -0.0525621 0.96969
RightToes  -33.8377 -0.171221 -0.277734
Spine  -0.370155 0.189461 -0.393633
Spine1  -0.801386 0.500383 -0.174179
HEad  -64.8163 2.72038 6.26891
LeftShoulder1  -1.94126e-019 -3.10601e-018 -2.51263e-017
LeftArm  -11.7653 17.6071 -80.7156
LeftForeArm  31.0095 -21.1881 -3.4465
LeftHand  -0.453033 -1.31426 8.00105
RightShoulder  -4.96962e-017 0 -2.36833e-017
RightArm  -24.8163 -13.8464 74.6032
RightForeArm  53.1721 16.2604 1.10603
RightHand  -0.358886 -1.4902 -10.5244
LeftUpLeg  -17.2333 -0.152672 2.98476
LeftLeg  19.436 8.34362 2.3414
LeftFoot  3.85196 -0.0147055 0.735603
LeftToes  -22.4221 1.31378e-006 1.14341e-007
248
root  1.29474 34.5783 -59.5603 -170.556 8.58716 -179.595
RightUpLeg  -21.1762 -10.6124 -3.97315
RightLeg  12.481 6.23317 0.963926
RightFoot  15.9576 -0.189083 1.85012
RightToes  -35.4756 -0.183387 -0.288165
Spine  -0.251251 0.322416 -0.561789
Spine1  -0.563635 0.758068 -0.488059
HEad  -65.2383 4.56815 6.19391
LeftShoulder1  -1.94126e-019 -3.10601e-018 -2.51263e-017
LeftArm  -11.4594 17.4066 -80.6723
LeftForeArm  30.5376 -21.5468 -3.45371
LeftHand  -0.455329 -0.813091 8.6483
RightShoulder  -4.96962e-017 0 -2.36833e-017
RightArm  -23.6194 -12.2768 75.1912
RightForeArm  52.6745 17.8295 1.29555
RightHand  -0.363567 -1.3637 -10.3775
LeftUpLeg  -18.3085 1.9623 2.46225
LeftLeg  19.388 9.32699 2.60665
LeftFoot  4.16664 -0.0245132 0.863923
LeftToes  -21.2259 1.31378e-006 1.14341e-007
249
root  0.883841 34.5913 -58.9791 -169.359 11.8553 -179.558
RightUpLeg  -23.1819 -10.7312 -3.6753
RightLeg  10.3793 9.92117 1.16145
RightFoot  18.8341 -0.474816 3.34328
RightToes  -36.5838 -0.191784 -0.295022
Spine  -0.344824 0.424247 -0.824623
Spine1  -0.752357 0.944577 -0.987525
HEad  -65.8379 6.88634 6.13609
LeftShoulder1  -1.94126e-019 -3.10601e-018 -2.51263e-017
LeftArm  -10.8318 17.4909 -80.321
LeftForeArm  29.849 -21.9117 -3.49114
LeftHand  -0.444955 -0.642517 8.67835
RightShoulder  -4.96962e-017 0 -2.36833e-017
RightArm  -22.219 -11.2188 76.0075
RightForeArm  52.275 20.482 1.80542
RightHand  -0.369743 -1.2126 -10.1904
LeftUpLeg  -19.6206 4.65073 1.59079
LeftLeg  18.5154 9.98393 2.6263
LeftFoot  4.86806 -0.0375859 1.04207
LeftToes  -21.0159 1.31378e-006 1.14341e-007
250
root  0.545727 34.5916 -58.465 -168.685 14.4903 -179.376
RightUpLeg  -23.7733 -11.5369 -3.10397
RightLeg  7.11768 13.723 0.820091
RightFoot  21.2353 -0.878925 5.14565
RightToes  -40.0205 -0.218647 -0.315238
Spine  -0.37087 0.375613 -0.975106
Spine1  -0.809426 0.848884 -1.28352
HEad  -66.1205 9.17241 6.07299
LeftShoulder1  -1.94126e-019 -3.10601e-018 -2.51263e-017
LeftArm  -10.098 17.4627 -79.8344
LeftForeArm  29.4432 -21.776 -3.47867
LeftHand  -0.443635 -0.66947 8.61667
RightShoulder  -4.96962e-017 0 -2.36833e-017
RightArm  -21.1372 -10.7488 76.9881
RightForeArm  52.6091 23.0567 2.28486
RightHand  -0.39234 -0.918783 -10.1394
LeftUpLeg  -20.5601 7.03876 0.990685
LeftLeg  17.9551 10.2423 2.58747
LeftFoot  5.34129 -0.0463856 1.15288
LeftToes  -20.6818 1.31378e-006 1.14341e-007
251
root  0.258193 34.5855 -57.9882 -168.448 16.24 -179.24
RightUpLeg  -23.7417 -13.522 -2.4758
RightLeg  5.22406 16.5044 0.443705
RightFoot  20.4801 -1.00457 5.99997
RightToes  -44.7928 -0.257857 -0.340564
Spine  -0.335206 0.258426 -1.09349
Spine1  -0.739666 0.618918 -1.51906
HEad  -66.0338 10.8136 5.97279
LeftShoulder1  -1.94126e-019 -3.10601e-018 -2.51263e-017
LeftArm  -9.40142 17.0093 -79.2586
LeftForeArm  29.8433 -21.2391 -3.43483
LeftHand  -0.451266 -0.870411 8.49835
RightShoulder  -4.96962e-017 0 -2.36833e-017
RightArm  -19.9531 -10.8727 77.9071
RightForeArm  52.689 25.3273 2.72951
RightHand  -0.407633 -0.717101 -10.1029
LeftUpLeg  -21.3431 8.0043 0.641256
LeftLeg  17.8746 10.9696 2.7527
LeftFoot  5.8209 -0.0590113 1.32222
LeftToes  -20.5383 1.31378e-006 1.14341e-007
252
root  0.0101821 34.5819 -57.5141 -168.451 17.1365 -178.966
RightUpLeg  -23.2236 -14.1494 -2.55895
RightLeg  6.76724 13.5727 0.728746
RightFoot  16.2759 -0.499936 3.95515
RightToes  -44.5487 -0.255801 -0.339349
Spine  -0.290364 0.163946 -1.09088
Spine1  -0.649032 0.436906 -1.51637
HEad  -65.6025 11.5895 5.81221
LeftShoulder1  -1.94126e-019 -3.10601e-018 -2.51263e-017
LeftArm  -9.35856 16.2825 -78.8998
LeftForeArm  30.8043 -20.7194 -3.40085
LeftHand  -0.447869 -0.840889 8.47278
RightShoulder  -4.96962e-017 0 -2.36833e-017
RightArm  -19.0917 -11.5581 78.4762
RightForeArm  52.819 26.9731 3.05707
RightHand  -0.424865 -0.397229 -9.88779
LeftUpLeg  -22.252 7.80409 0.703025
LeftLeg  18.4437 11.9734 3.12635
LeftFoot  6.36812 -0.077586 1.55617
LeftToes  -20.193 1.31378e-006 1.14341e-007
253
root  -0.204514 34.5793 -57.0313 -168.625 17.7088 -178.611
RightUpLeg  -22.1693 -12.7089 -3.43246
RightLeg  10.4973 6.46811 0.772781
RightFoot  13.7711 -0.141655 1.67249
RightToes  -37.659 -0.200057 -0.30152
Spine  -0.24813 0.16899 -1.01952
Spine1  -0.563478 0.455419 -1.37909
HEad  -64.9749 11.7909 5.79938
LeftShoulder1  -1.94126e-019 -3.10601e-018 -2.51263e-017
LeftArm  -9.96096 15.9834 -78.6202
LeftForeArm  30.8027 -21.3124 -3.50717
LeftHand  -0.462683 -0.766777 8.8484
RightShoulder  -4.96962e-017 0 -2.36833e-017
RightArm  -18.6128 -12.2333 78.7769
RightForeArm  52.8635 27.282 3.11723
RightHand  -0.434455 -0.104715 -9.57879
LeftUpLeg  -23.1872 7.7654 0.912964
LeftLeg  19.3107 12.4922 3.46012
LeftFoot  7.0489 -0.0998151 1.78206
LeftToes  -19.4579 1.31378e-006 1.14341e-007
254
root  -0.369077 34.536 -56.5325 -169.063 17.994 -178.42
RightUpLeg  -21.1844 -12.286 -4.15794
RightLeg  16.2738 -0.344952 -0.0774675
RightFoot  9.22434 0.034818 0.103364
RightToes  -32.7974 -0.163651 -0.270931
Spine  -0.198409 0.168702 -0.934247
Spine1  -0.460598 0.460764 -1.21105
HEad  -64.2655 11.7401 5.82652
LeftShoulder1  -1.94126e-019 -3.10601e-018 -2.51263e-017
LeftArm  -10.6897 16.4191 -78.2157
LeftForeArm  29.3722 -23.3642 -3.79796
LeftHand  -0.456911 -0.48112 9.13996
RightShoulder  -4.96962e-017 0 -2.36833e-017
RightArm  -18.3913 -12.6725 78.8803
RightForeArm  53.0219 26.503 2.95004
RightHand  -0.433495 0.0991359 -9.22153
LeftUpLeg  -24.1919 8.65685 0.909278
LeftLeg  20.5008 11.8028 3.53514
LeftFoot  7.49902 -0.107298 1.7987
LeftToes  -18.7271 1.31378e-006 1.14341e-007
